<svg xmlns="http://www.w3.org/2000/svg" width="300" height="80" viewBox="0 0 300 80"><path fill="#5A565A" d="M.044 49.245h8.22V5.781H.044v43.464zm21.654-6.441h5.16c5.339 0 6.18-6.862 6.18-15.351 0-10.655-1.44-15.23-5.94-15.23h-5.399v30.581h-.001zM13.479 5.781h14.519c7.26 0 13.439 3.732 13.439 19.625v2.168c0 9.752-1.92 21.671-12.959 21.671H13.479V5.781zm48.899 13.726v-.481c0-5.298-1.92-7.405-5.16-7.405-2.34 0-4.379 1.264-4.379 3.671 0 2.589 1.019 3.793 2.76 4.937l8.399 5.598c4.56 3.07 7.38 5.719 7.38 12.22 0 7.645-4.68 12.221-13.32 12.221-9.179 0-13.859-5.357-13.859-14.267v-1.685h7.859v1.685c0 6.08 2.88 7.646 6 7.646s4.86-2.168 4.86-4.876c0-2.829-1.44-4.514-4.5-6.501l-7.32-4.816c-4.319-2.829-6.479-6.501-6.479-11.197C44.619 9.093 49.898 5 57.397 5c8.22 0 12.839 4.455 12.839 13.184v1.324h-7.859l.001-.001zM.221 61.101h.798v-7.208H.221v7.208zm4.341-7.208l2.036 5.898c.09.25.16.46.249.791h.03l-.03-.801v-5.887h.798v7.209H6.338l-2.006-5.768c-.12-.33-.2-.65-.27-1.082h-.02c.01.361.02.732.02 1.102v5.748h-.798v-7.209h1.297l.001-.001zm7.385 7.209h-.798v-6.489H9.283v-.72h4.52v.72h-1.856v6.489zm7.097-7.209v.72h-2.805v2.343h2.625v.721h-2.625v2.704h2.815v.72h-3.613v-7.209h3.603v.001zm2.774 3.314h1.388c.558 0 1.256-.26 1.256-1.321 0-1.042-.588-1.272-1.287-1.272h-1.357v2.593zm0 3.895h-.798v-7.209h2.186c1.256 0 2.085.611 2.085 1.961 0 .822-.469 1.543-1.298 1.663v.021c.76.089 1.228.741 1.228 1.632 0 1.502.129 1.552.239 1.772v.16h-.808c-.16-.47-.229-.891-.229-1.672 0-.951-.419-1.502-1.307-1.502h-1.298v3.174zm6.918-7.209l2.035 5.898c.091.25.16.46.25.791h.03c-.011-.26-.03-.54-.03-.801v-5.887h.798v7.209h-1.307l-2.005-5.768c-.121-.33-.2-.65-.27-1.082h-.02c.01.361.02.732.02 1.102v5.748h-.798v-7.209h1.298l-.001-.001zm7.295.58h-.02l-.948 3.836h1.897l-.929-3.836zm-.518-.58h1.057l2.016 7.209h-.878l-.57-2.073h-2.265l-.529 2.073h-.878l2.047-7.209zm6.326 7.209h-.798v-6.489h-1.867v-.72h4.521v.72h-1.857v6.489h.001zm3.494-.001h.798v-7.208h-.798v7.208zm5.19-6.628c-1.228 0-1.517 1.272-1.517 2.885 0 2.093.22 3.194 1.537 3.194s1.548-1.102 1.548-3.184c0-1.612-.3-2.894-1.567-2.894l-.001-.001zm-2.345 3.015c0-1.653.269-3.735 2.365-3.735 2.106 0 2.375 2.083 2.375 3.735 0 1.992-.279 3.785-2.375 3.785s-2.365-1.793-2.365-3.785zm8.083-3.595l2.036 5.898c.09.25.16.46.25.791h.03c-.01-.26-.03-.54-.03-.801v-5.887h.798v7.209h-1.308l-2.005-5.768c-.12-.33-.2-.65-.27-1.082h-.02c.009.361.02.732.02 1.102v5.748h-.798v-7.209h1.296l.001-.001zm7.297.58h-.02l-.948 3.836h1.896l-.928-3.836zm-.519-.58h1.058l2.016 7.209h-.879l-.568-2.073H62.4l-.529 2.073h-.878l2.046-7.209zm5.519 6.489h2.934v.72h-3.733v-7.209h.798v6.489h.001zM1.448 71.601h.909c.941 0 1.089-1.209 1.089-2.705 0-1.878-.254-2.683-1.046-2.683h-.952v5.388zM0 65.078h2.558c1.279 0 2.368.657 2.368 3.458v.382c0 1.719-.338 3.818-2.282 3.818H.001v-7.658H0zm10.411 0v1.167H7.779v1.782h2.399v1.167H7.779v2.376h2.632v1.167H6.33v-7.658h4.081v-.001zm4.385 2.418v-.084c0-.934-.338-1.305-.909-1.305-.412 0-.772.223-.772.647 0 .456.18.668.487.869l1.48.987c.803.54 1.3 1.008 1.3 2.153 0 1.347-.825 2.153-2.347 2.153-1.617 0-2.441-.944-2.441-2.514v-.297h1.384v.297c0 1.071.508 1.347 1.057 1.347.55 0 .856-.382.856-.859 0-.499-.253-.796-.792-1.146l-1.29-.849c-.762-.499-1.142-1.145-1.142-1.972 0-1.263.93-1.984 2.252-1.984 1.448 0 2.262.785 2.262 2.323v.233h-1.385v.001zm2.873 5.24h1.449v-7.658h-1.449v7.658zm7.791-4.105v4.104h-1.132v-.859c-.317.657-.719 1.039-1.627 1.039-1.163 0-2.167-.827-2.167-2.758v-2.503c0-1.793.856-2.716 2.516-2.716 1.786 0 2.41 1.167 2.41 2.408v.212h-1.449c0-1.039-.306-1.453-.962-1.453-.741 0-1.036.435-1.036 1.453v2.43c0 1.198.265 1.76 1.026 1.76.634 0 .972-.446.972-1.474v-.509h-.962v-1.136h2.41l.001.002zm2.979-3.553l2.114 5.569h.011c-.159-.859-.179-1.983-.179-2.854v-2.714h1.353v7.658h-1.565l-2.114-5.558h-.011c.159.742.179 2.068.179 2.843v2.715h-1.353v-7.658h1.565v-.001zm10.779 2.418v-.084c0-.934-.338-1.305-.909-1.305-.412 0-.772.223-.772.647 0 .456.18.668.487.869l1.48.987c.803.54 1.3 1.008 1.3 2.153 0 1.347-.825 2.153-2.347 2.153-1.617 0-2.442-.944-2.442-2.514v-.297h1.384v.297c0 1.071.508 1.347 1.058 1.347.549 0 .856-.382.856-.859 0-.499-.253-.796-.792-1.146l-1.291-.849c-.761-.499-1.141-1.145-1.141-1.972 0-1.263.93-1.984 2.251-1.984 1.448 0 2.263.785 2.263 2.323v.233h-1.386l.001.001zm6.035.074v-.169c0-.966-.244-1.294-.856-1.294-.613 0-.877.329-.877 1.294v3.023c0 .997.253 1.326.867 1.326.581 0 .866-.339.866-1.326v-.414h1.448v.329c0 1.39-.497 2.578-2.304 2.578-1.903 0-2.357-1.199-2.357-2.556v-2.79c0-1.793.804-2.63 2.378-2.63 1.48 0 2.283.837 2.283 2.248v.382h-1.448v-.001zm4.311.456h1.914v-2.948h1.449v7.658h-1.449v-3.543h-1.914v3.543h-1.448v-7.658h1.448v2.948zm6.256-.636v3.129c0 .795.317 1.23 1.005 1.23.624 0 .972-.424.972-1.23v-3.108c0-.817-.348-1.305-.972-1.305-.688 0-1.005.467-1.005 1.284zm1.005-2.45c1.469 0 2.452.668 2.452 2.62v2.779c0 1.952-.983 2.578-2.452 2.578-1.448 0-2.485-.647-2.485-2.578V67.56c0-1.93 1.037-2.62 2.485-2.62zm5.294 2.45v3.129c0 .795.316 1.23 1.004 1.23.624 0 .973-.424.973-1.23v-3.108c0-.817-.349-1.305-.973-1.305-.688 0-1.004.467-1.004 1.284zm1.004-2.45c1.47 0 2.453.668 2.453 2.62v2.779c0 1.952-.983 2.578-2.453 2.578-1.448 0-2.484-.647-2.484-2.578V67.56c0-1.93 1.036-2.62 2.484-2.62zm5.315 6.629h2.632v1.167h-4.08v-7.658h1.448v6.491zM80 80h220V0H80z"/><path fill="#FFF" d="M112.31 34.891h-1.492V24.146l.004-3.147-2.918 10.733-.88 3.158-1.486.001-2.961-10.743-.834-3.005.002 10.745v3.004h-1.481V19.163h2.299l3.627 13.749 2.953-10.745.838-3.004h2.329v15.729-.001zm12.351 0h-7.083V19.162h7.083v1.507h-5.6v5.117h4.946v1.497h-4.946v6.11h5.6v1.498zm17.96 0l-1.536.002-3.515-7.786-1.256 2.096v5.688h-1.492v-5.659l-1.252-2.123-3.497 7.783-1.533-.001 4.229-9.062-3.952-6.667 1.594-.001 4.412 8.074v-8.073h1.492v8.049l4.376-8.049 1.615.002-3.935 6.665 4.251 9.062h-.001zm12.23-1.456V20.516h-4.945v.718c0 2.542-.134 5.012-.403 7.407-.27 2.396-.601 3.993-.997 4.794h6.345zm2.249 3.711h-1.431v-2.225h-8.062v2.134h-1.42v-3.62l.306.041h.205a.64.64 0 0 0 .256-.041c.299-.534.552-1.274.756-2.225.095-.443.179-.912.249-1.405.073-.492.14-1.07.205-1.733.066-.662.116-1.259.155-1.789.036-.529.055-1.047.055-1.553 0-.587.004-1.028.011-1.322l.051-2.236v-2.01h7.909v14.273h.757v3.711h-.002zm12.989-17.963l-3.351 9.402-1.614 4.85c-.178.458-.397.793-.66 1.004a1.949 1.949 0 0 1-.824.41 3.016 3.016 0 0 1-.449.062c-.184.014-.377.02-.581.02l.04-1.455h.173c.204 0 .388-.048.551-.144.089-.055.187-.133.298-.236a3.49 3.49 0 0 0 .368-.421l1.042-3.424-4.446-10.07h1.677l3.447 8.312 2.777-8.311 1.553-.001-.001.002zm13.31 15.708h-1.48v-7.607h-5.764v7.607h-1.492V19.162h1.492v6.788h5.764v-6.788h1.48v15.729zm11.744-6.285l-2.151-7.948-1.819 7.948h3.97zm2.971 6.285l-1.493.001-1.156-4.964h-4.609l-1.312 4.964-1.485-.001 4.294-15.729h1.462l4.301 15.729h-.002zm11.274-11.647c0-.629-.145-1.161-.434-1.6a2.726 2.726 0 0 0-1.171-.989 3.797 3.797 0 0 0-1.584-.334h-2.28v6.111h2.301c.524 0 1.03-.118 1.517-.353a2.886 2.886 0 0 0 1.19-1.082c.306-.485.46-1.069.46-1.753h.001zm1.39-.062c0 .759-.13 1.424-.388 1.994a4.04 4.04 0 0 1-1.058 1.425 4.59 4.59 0 0 1-1.584.866 6.013 6.013 0 0 1-1.866.297h-1.962v7.126h-1.492V19.161h3.628c.852 0 1.586.103 2.203.308.616.205 1.104.487 1.466.846.361.359.627.776.797 1.25.17.476.256 1.015.256 1.616v.001zm11.782 4.398v-1.179c0-.963-.065-1.876-.195-2.738a5.386 5.386 0 0 0-.925-2.332c-.485-.694-1.209-1.085-2.17-1.174-.887 0-1.57.286-2.056.856-.483.572-.812 1.361-.988 2.369-.179 1.008-.266 2.196-.266 3.563 0 1.162.065 2.238.198 3.23.132.992.427 1.876.885 2.656.245.404.536.711.873.922.337.213.734.318 1.192.318h.172c.955 0 1.677-.344 2.162-1.03.487-.687.796-1.485.925-2.394a23.429 23.429 0 0 0 .195-3.065l-.002-.002zm1.317-.635a34.27 34.27 0 0 1-.102 2.881c0 .397-.045.794-.137 1.194-.092.399-.227.839-.404 1.318a4.486 4.486 0 0 1-1.45 2.071c-.327.274-.715.48-1.166.616a5.178 5.178 0 0 1-1.512.205c-1.356 0-2.366-.446-3.024-1.337-.662-.892-1.067-1.912-1.218-3.061a28.908 28.908 0 0 1-.164-1.876 38.476 38.476 0 0 1-.061-2.184v-1.22c0-.539.025-1.063.073-1.568a11.6 11.6 0 0 1 .225-1.446 4.87 4.87 0 0 1 1.346-2.43 3.481 3.481 0 0 1 1.281-.82 4.82 4.82 0 0 1 1.709-.288c.457 0 .871.054 1.251.159.377.106.731.261 1.058.466.591.363 1.056.886 1.396 1.568a7.1 7.1 0 0 1 .419 1.113c.123.421.217.856.285 1.308.129.909.193 2.02.193 3.332l.002-.001zm12.357 6.49V20.516h-4.945v.718c0 2.542-.134 5.012-.403 7.407-.27 2.396-.601 3.993-.997 4.794h6.345zm2.248 3.711h-1.43v-2.225h-8.062v2.134h-1.42v-3.62l.306.041h.204a.63.63 0 0 0 .255-.041c.299-.534.553-1.274.757-2.225.095-.443.179-.912.25-1.405.073-.492.14-1.07.204-1.733.066-.662.117-1.259.155-1.789.037-.529.056-1.047.056-1.553 0-.587.003-1.028.009-1.322l.052-2.236v-2.01h7.909v14.273h.755v3.711zm14.048-2.255h-1.483v-7.607h-5.763v7.607h-1.492V19.162h1.492v6.788h5.763v-6.788h1.483v15.729zm11.546-6.285l-2.153-7.948-1.82 7.948h3.973zm2.969 6.285l-1.493.001-1.157-4.964h-4.609l-1.312 4.964-1.483-.001 4.292-15.729h1.462l4.301 15.729h-.001zm11.247-8.459v-6.029l-2.115-.021c-.517 0-.983.125-1.396.373-.412.249-.741.612-.986 1.089s-.367 1.033-.367 1.666c0 .504.091.978.276 1.425.183.448.45.808.802 1.084.35.276.748.414 1.19.414h2.595l.001-.001zm1.492 8.459h-1.492v-6.982l-2.41.001-3.378 7.021-1.794.001 3.771-7.361c-.532-.054-1-.273-1.404-.657-.406-.382-.719-.878-.94-1.487a5.718 5.718 0 0 1-.332-1.968c0-.628.087-1.201.26-1.718.175-.515.441-.968.803-1.359.363-.39.8-.69 1.318-.902.266-.102.548-.181.849-.236.3-.054.627-.082.981-.082h3.77v15.729h-.002zM100 60.389V44.294h3.369v13.643h3.639V44.294h3.37v13.643h3.638V44.294h3.37v16.095H100zm23.884-9.118l4.082-6.977h3.812l-4.501 6.977 4.648 9.118h-3.762l-2.95-6.42-1.329 1.582v4.838h-3.369V44.294h3.369v6.977zm12.534-2.116v6.576c0 1.671.737 2.585 2.338 2.585 1.449 0 2.261-.891 2.261-2.585v-6.532c0-1.717-.812-2.742-2.261-2.742-1.601 0-2.338.981-2.338 2.698zm2.338-5.149c3.416 0 5.703 1.403 5.703 5.505v5.841c0 4.102-2.287 5.417-5.703 5.417-3.37 0-5.779-1.36-5.779-5.417v-5.841c0-4.057 2.41-5.505 5.779-5.505zm20.236.288v16.095h-3.369V46.746h-3.591v6.176c0 5.372-.983 7.757-3.81 7.757-.787 0-1.401-.045-2.041-.2v-2.251c.222.067.689.111 1.082.111 1.031 0 1.449-.491 1.449-6.331v-7.713h10.28v-.001zm10.559 9.518l-1.353-7.49-1.623 7.49h2.976zm-3.566-9.518h4.525l3.934 16.095h-3.639l-.834-4.191h-3.814l-1.056 4.191h-3.614l4.499-16.095h-.001zm21.986 2.452v3.656c0 3.701-.563 5.529-1.597 7.535h4.991V46.746h-3.394zm6.762-2.452v13.643h1.083v5.685h-3.246v-3.233h-7.352v3.233h-3.245v-5.685h1.057c1.181-2.363 1.624-4.191 1.624-8.627v-5.017h10.079v.001zm6.868 0v6.018c0 1.918-.097 4.348-.418 5.685h.025l4.919-11.704h3.639v16.095h-3.147v-6.086c0-2.452.076-4.146.417-5.595h-.024l-4.917 11.68h-3.641V44.292h3.147v.002zm10.849 4.637c0-2.809 1.941-4.925 5.286-4.925 2.385 0 5.313 1.025 5.313 4.279 0 1.671-1.107 3.121-2.73 3.499 1.768.402 2.974 1.717 2.974 4.148 0 3.232-1.942 4.837-5.459 4.837-2.9 0-5.655-1.204-5.655-4.66h3.27c0 1.115.493 2.207 2.19 2.207 1.622 0 2.213-1.002 2.213-2.675 0-1.894-1.057-2.586-2.458-2.586h-.714v-2.297h.714c1.252 0 2.213-.624 2.213-2.05 0-1.071-.443-2.252-1.87-2.252-1.327 0-2.016 1.025-2.016 2.474h-3.27l-.001.001zm20.197 4.881l-1.353-7.49-1.621 7.49h2.974zm-3.566-9.518h4.525l3.934 16.095h-3.639l-.835-4.191h-3.812l-1.057 4.191h-3.615l4.499-16.095zm14.506-4.369c0 1.204.689 1.828 1.769 1.828 1.084 0 1.772-.623 1.772-1.828h1.745c0 1.716-.714 3.344-3.565 3.344-2.755 0-3.468-1.627-3.468-3.344H243.587zm-.616 4.369v6.042c0 1.918-.096 4.325-.417 5.662h.024l4.919-11.704h3.639v16.095h-3.147v-6.108c0-2.452.074-4.124.418-5.573h-.025l-4.916 11.68h-3.642V44.293h3.147v.001zm14.564 6.197h4.449v-6.198h3.37v16.095h-3.37v-7.446h-4.449v7.446h-3.369V44.293h3.369v6.198zM272.1 44.3h4.525l3.933 16.095h-3.638l-.837-4.191h-3.812l-1.056 4.191H267.6l4.499-16.095h.001zm3.565 9.518l-1.351-7.49-1.623 7.49h2.974z"/></svg>