<svg width="233" height="43" viewBox="0 0 233 43" fill="none" xmlns="http://www.w3.org/2000/svg">
<path d="M27.304 9.624L27.208 11.16C27.208 13.24 28.328 14.28 30.568 14.28C32.424 14.28 34.296 13.64 36.184 12.36C38.072 11.08 39.016 9.784 39.016 8.472C39.016 7.16 38.248 6.056 36.712 5.16C35.688 4.552 34.088 4.248 31.912 4.248C28.68 4.248 25.064 5.016 21.064 6.552C17.096 8.088 13.368 10.552 9.88 13.944C5.304 18.424 3.016 22.536 3.016 26.28C3.016 28.488 3.848 30.264 5.512 31.608C7.208 32.952 9.416 33.624 12.136 33.624C15.912 33.624 20.296 32.2 25.288 29.352C29.448 27.016 32.568 24.536 34.648 21.912L36.04 19.848C35.464 19.848 33.08 20.024 28.888 20.376C24.696 20.696 22.296 20.936 21.688 21.096C21.08 21.224 20.584 21.288 20.2 21.288C19.144 21.288 18.616 21.032 18.616 20.52C18.616 19.72 19.832 19.064 22.264 18.552C24.696 18.008 28.808 17.736 34.6 17.736C40.392 17.736 44.216 17.96 46.072 18.408C46.36 18.472 46.504 18.552 46.504 18.648C46.504 19 45.4 19.256 43.192 19.416C40.44 19.64 39.032 19.752 38.968 19.752C35.704 24.04 31.48 30.664 26.296 39.624C26.008 40.136 25.72 40.392 25.432 40.392C25.176 40.392 25.048 40.184 25.048 39.768C25.048 38.648 25.944 36.488 27.736 33.288L31.096 27C29.048 28.76 26.44 30.408 23.272 31.944C19.144 33.896 15.24 34.872 11.56 34.872C7.912 34.872 5.112 34.088 3.16 32.52C1.24 30.92 0.28 28.792 0.28 26.136C0.28 21.24 3.24 16.264 9.16 11.208C12.136 8.648 15.736 6.52 19.96 4.824C24.184 3.128 27.88 2.28 31.048 2.28C34.248 2.28 36.696 2.904 38.392 4.152C39.704 5.176 40.36 6.328 40.36 7.608C40.36 9.432 39.224 11.192 36.952 12.888C34.712 14.552 32.488 15.384 30.28 15.384C27.304 15.384 25.816 13.672 25.816 10.248C25.816 8.936 26.088 8.28 26.632 8.28C27.08 8.28 27.304 8.728 27.304 9.624ZM98.158 11.544C98.158 13.176 97.342 14.968 95.71 16.92C94.078 18.872 91.598 20.456 88.27 21.672C84.974 22.888 81.758 23.496 78.622 23.496C75.518 23.496 73.054 23.096 71.23 22.296C67.198 28.216 64.574 31.784 63.358 33C59.902 36.456 55.774 38.184 50.974 38.184C48.254 38.184 46.206 37.544 44.83 36.264C43.486 35.016 42.814 33.384 42.814 31.368C42.814 28.584 43.934 25.96 46.174 23.496C48.638 20.776 51.742 19.416 55.486 19.416C57.022 19.416 58.318 19.768 59.374 20.472C60.43 21.176 60.958 22.248 60.958 23.688C60.958 24.648 60.414 25.8 59.326 27.144C58.238 28.488 57.566 29.16 57.31 29.16C57.246 29.16 57.214 29.096 57.214 28.968C57.214 28.84 57.262 28.712 57.358 28.584C58.382 27.08 58.894 25.704 58.894 24.456C58.894 23.176 58.494 22.2 57.694 21.528C56.926 20.824 55.966 20.472 54.814 20.472C52.126 20.472 49.742 21.704 47.662 24.168C45.614 26.6 44.59 29.064 44.59 31.56C44.59 33.16 45.086 34.456 46.078 35.448C47.102 36.44 48.67 36.936 50.782 36.936C54.718 36.936 58.094 35.608 60.91 32.952C62.542 31.416 64.19 29.176 65.854 26.232L70.03 18.696C72.078 15.4 74.462 10.504 77.182 4.008C76.894 4.008 76.606 4.008 76.318 4.008C71.998 4.008 67.662 4.488 63.31 5.448C58.958 6.376 55.662 7.72 53.422 9.48C52.462 10.216 51.982 10.936 51.982 11.64C51.982 12.344 52.35 12.92 53.086 13.368C53.854 13.784 54.75 13.992 55.774 13.992C56.798 13.992 58.062 13.8 59.566 13.416C61.102 13 62.254 12.456 63.022 11.784C63.342 11.528 63.566 11.4 63.694 11.4C63.95 11.4 63.998 11.528 63.838 11.784C62.686 13.128 60.942 14.136 58.606 14.808C57.166 15.224 55.742 15.432 54.334 15.432C52.926 15.432 51.774 15.128 50.878 14.52C49.982 13.88 49.534 13.032 49.534 11.976C49.534 10.888 50.11 9.8 51.262 8.712C53.438 6.6 57.326 5.032 62.926 4.008C66.894 3.304 71.454 2.952 76.606 2.952C77.022 2.952 77.454 2.952 77.902 2.952C78.606 2.344 79.246 2.04 79.822 2.04C80.398 2.04 80.686 2.264 80.686 2.712C80.686 2.808 80.67 2.92 80.638 3.048C85.598 3.4 89.614 4.232 92.686 5.544C96.334 7.08 98.158 9.08 98.158 11.544ZM95.902 11.064C95.902 9.048 94.27 7.4 91.006 6.12C88.158 5 84.59 4.328 80.302 4.104L78.766 8.904C77.55 11.912 75.214 16.104 71.758 21.48C72.078 21.64 72.622 21.816 73.39 22.008C74.67 22.232 75.662 22.344 76.366 22.344C78.798 22.344 81.598 21.848 84.766 20.856C87.934 19.832 90.574 18.36 92.686 16.44C94.83 14.488 95.902 12.696 95.902 11.064ZM146.392 19.272L151.048 19.176C152.2 19.176 152.776 19.256 152.776 19.416C152.776 19.832 150.44 20.2 145.768 20.52C142.792 26.344 141.304 30.312 141.304 32.424C141.304 33.896 141.768 34.632 142.696 34.632C143.048 34.632 143.48 34.408 143.992 33.96C144.536 33.544 144.856 33.336 144.952 33.336C145.08 33.336 145.144 33.416 145.144 33.576C144.984 34.152 144.488 34.632 143.656 35.016C142.856 35.4 142.168 35.592 141.592 35.592C141.048 35.592 140.616 35.56 140.296 35.496C139.528 35.208 139.144 34.28 139.144 32.712C139.144 29.48 140.376 25.368 142.84 20.376L137.08 20.52C132.792 24.712 128.488 28.392 124.168 31.56C117.704 36.264 112.648 38.616 109 38.616C108.776 38.616 108.552 38.6 108.328 38.568C103.4 38.152 100.936 35.624 100.936 30.984C100.936 28.232 101.8 25.32 103.528 22.248C105.832 18.152 108.984 14.664 112.984 11.784C116.984 8.872 120.568 7.416 123.736 7.416C126.904 7.416 128.488 8.584 128.488 10.92C128.488 12.488 128.008 14.232 127.048 16.152C126.088 18.072 125.112 19.288 124.12 19.8C124.024 19.832 123.912 19.848 123.784 19.848C123.688 19.848 123.64 19.816 123.64 19.752L125.224 17.16C126.312 15.464 126.856 13.976 126.856 12.696C126.856 11.416 126.568 10.392 125.992 9.624C125.448 8.824 124.568 8.424 123.352 8.424C120.856 8.424 117.864 9.816 114.376 12.6C110.92 15.384 108.28 18.808 106.456 22.872C104.664 26.936 103.768 30.104 103.768 32.376C103.768 35.8 105.512 37.512 109 37.512C112.328 37.512 116.84 35.368 122.536 31.08C125.064 29.192 129.176 25.624 134.872 20.376C133.752 20.44 132.712 20.552 131.752 20.712C129.704 21.096 128.744 21.032 128.872 20.52C129 19.336 129.608 18.744 130.696 18.744C132.808 19 134.584 19.128 136.024 19.128C138.776 16.6 142.888 12.456 148.36 6.696C152.04 2.824 154.28 0.887999 155.08 0.887999C155.432 0.887999 155.608 1.16 155.608 1.704C155.608 2.248 155.464 3.096 155.176 4.248C154.888 5.4 154.568 6.104 154.216 6.36C153.48 6.872 152.792 7.576 152.152 8.472C151.512 9.336 150.6 10.984 149.416 13.416C148.232 15.816 147.224 17.768 146.392 19.272ZM150.232 7.56L137.944 19.08H140.776C141.448 19.112 142.28 19.128 143.272 19.128C144.2 17.304 146.52 13.448 150.232 7.56ZM165.954 18.36L166.626 18.216C167.042 18.216 167.362 18.344 167.586 18.6C167.842 18.856 167.97 19.064 167.97 19.224C167.97 19.352 167.954 19.512 167.922 19.704C167.89 19.864 167.426 20.664 166.53 22.104C165.41 24.056 164.482 25.704 163.746 27.048C161.154 31.88 159.17 35.192 157.794 36.984C154.85 40.888 152.05 42.84 149.394 42.84C148.466 42.84 147.666 42.44 146.994 41.64C146.29 40.872 145.922 40.008 145.89 39.048C145.986 38.664 146.13 38.472 146.322 38.472C146.418 38.472 146.498 38.584 146.562 38.808C146.722 39.64 147.026 40.28 147.474 40.728C147.922 41.176 148.37 41.4 148.818 41.4C150.642 41.4 152.594 40.2 154.674 37.8C156.05 36.2 157.57 33.864 159.234 30.792L161.634 26.04L158.034 29.688C155.73 31.896 154.146 33 153.282 33C152.45 33 151.65 32.712 150.882 32.136C150.018 31.496 149.586 30.648 149.586 29.592C149.586 27.256 151.218 24.472 154.482 21.24C157.778 18.008 160.77 16.392 163.458 16.392C164.546 16.392 165.25 16.744 165.57 17.448C165.666 17.704 165.746 17.928 165.81 18.12C165.874 18.28 165.922 18.36 165.954 18.36ZM151.602 30.168C151.602 31.32 152.002 31.896 152.802 31.896C154.658 31.896 157.186 29.864 160.386 25.8L165.474 18.792C165.282 18.344 164.882 18.12 164.274 18.12C162.29 18.12 159.682 19.656 156.45 22.728C153.218 25.768 151.602 28.248 151.602 30.168ZM170.136 33.624C169.784 33.624 169.464 33.576 169.176 33.48C167.128 32.904 166.104 31.752 166.104 30.024C166.104 27.784 167.512 25.192 170.328 22.248C173.144 19.304 175.672 17.832 177.912 17.832C178.648 17.832 179.24 18.04 179.688 18.456C180.168 18.84 180.408 19.32 180.408 19.896C180.408 21.688 179.048 23.4 176.328 25.032C173.64 26.664 171.448 27.48 169.752 27.48C169.496 27.48 169.272 27.448 169.08 27.384C168.6 28.248 168.36 29.16 168.36 30.12C168.36 31.784 169.144 32.616 170.712 32.616C172.312 32.616 174.376 31.544 176.904 29.4C178.856 27.832 180.52 26.168 181.896 24.408C182.184 24.024 182.424 23.832 182.616 23.832C182.84 23.832 182.952 23.928 182.952 24.12C182.952 24.312 182.824 24.584 182.568 24.936C180.84 27.208 178.76 29.224 176.328 30.984C173.896 32.744 171.832 33.624 170.136 33.624ZM179.208 19.8C179.208 19.416 178.792 19.224 177.96 19.224C177.16 19.224 176.008 19.848 174.504 21.096C172.488 22.76 170.92 24.504 169.8 26.328C169.992 26.392 170.2 26.424 170.424 26.424C171.64 26.424 173.256 25.784 175.272 24.504C177.32 23.192 178.6 21.768 179.112 20.232C179.176 20.072 179.208 19.928 179.208 19.8ZM187.744 17.832C188.608 17.832 189.04 18.168 189.04 18.84C189.04 19.032 188.992 19.224 188.896 19.416C186.016 23.416 184.288 26.44 183.712 28.488C191.168 21.032 195.696 17.304 197.296 17.304C197.456 17.272 197.6 17.256 197.728 17.256C198.624 17.256 199.072 17.656 199.072 18.456C199.072 18.616 199.04 18.776 198.976 18.936C198.912 19.096 198.272 19.96 197.056 21.528C195.648 23.192 194.448 24.792 193.456 26.328C192.496 27.864 192.016 29.144 192.016 30.168C192.016 31.192 192.24 31.704 192.688 31.704C194.096 31.704 196.544 29.768 200.032 25.896C200.096 25.832 200.208 25.688 200.368 25.464C200.848 24.888 201.136 24.6 201.232 24.6C201.328 24.6 201.376 24.76 201.376 25.08C201.376 25.4 201.152 25.816 200.704 26.328C196.736 30.84 193.92 33.096 192.256 33.096C190.688 33.096 189.904 32.232 189.904 30.504C189.904 28.776 190.544 26.792 191.824 24.552L194.896 19.56C192.72 21.16 190.784 22.92 189.088 24.84C187.392 26.728 185.84 28.568 184.432 30.36C183.056 32.152 182.256 33.048 182.032 33.048C181.552 33.048 181.168 32.856 180.88 32.472C180.624 32.056 180.496 31.56 180.496 30.984C180.496 30.376 180.704 29.576 181.12 28.584C181.536 27.592 182.064 26.392 182.704 24.984L179.824 28.008C179.12 28.712 178.688 29.064 178.528 29.064C178.336 29.064 178.24 28.968 178.24 28.776C178.24 28.552 178.368 28.312 178.624 28.056C179.808 26.872 180.832 25.736 181.696 24.648C182.528 23.56 184.24 21.48 186.832 18.408C187.12 18.024 187.424 17.832 187.744 17.832ZM203.023 33.624C202.671 33.624 202.351 33.576 202.063 33.48C200.015 32.904 198.991 31.752 198.991 30.024C198.991 27.784 200.399 25.192 203.215 22.248C206.031 19.304 208.559 17.832 210.799 17.832C211.535 17.832 212.127 18.04 212.575 18.456C213.055 18.84 213.295 19.384 213.295 20.088C213.295 20.76 213.087 21.48 212.671 22.248C212.255 22.984 211.631 23.352 210.799 23.352C209.967 23.352 209.551 23.096 209.551 22.584C209.551 22.232 209.759 21.704 210.175 21C210.623 20.264 210.847 19.88 210.847 19.848C210.847 19.784 210.799 19.752 210.703 19.752C209.807 19.848 208.575 20.488 207.007 21.672C205.471 22.856 204.415 23.848 203.839 24.648L201.967 27.384C201.647 27.896 201.407 28.504 201.247 29.208C201.119 29.912 201.055 30.44 201.055 30.792C201.055 31.144 201.247 31.544 201.631 31.992C202.047 32.44 202.623 32.664 203.359 32.664C204.959 32.664 206.943 31.736 209.311 29.88C211.679 27.992 213.503 26.2 214.783 24.504C214.943 24.312 215.135 24.216 215.359 24.216C215.583 24.216 215.695 24.28 215.695 24.408C215.695 24.536 215.615 24.696 215.455 24.888C213.695 27.224 211.583 29.272 209.119 31.032C206.687 32.76 204.655 33.624 203.023 33.624ZM210.281 38.568C211.817 40.488 213.145 41.448 214.265 41.448C216.089 41.448 218.057 39.992 220.169 37.08C221.705 34.936 223.209 32.232 224.681 28.968L226.505 24.552L219.449 30.072C217.273 31.768 215.529 32.616 214.217 32.616C213.513 32.616 212.953 32.376 212.537 31.896C212.121 31.416 211.913 30.872 211.913 30.264C211.913 28.888 213.097 26.632 215.465 23.496C217.833 20.328 219.561 18.744 220.649 18.744C221.737 18.744 222.281 19.112 222.281 19.848C222.281 20.136 220.857 21.8 218.009 24.84C215.193 27.848 213.785 29.88 213.785 30.936C213.785 31.352 214.057 31.56 214.601 31.56C215.625 31.56 217.673 30.36 220.745 27.96C223.849 25.56 226.185 23.576 227.753 22.008C228.105 21.592 228.601 20.968 229.241 20.136C229.849 19.432 230.521 19.08 231.257 19.08C231.993 19.08 232.361 19.432 232.361 20.136C232.361 20.264 231.641 21.4 230.201 23.544C228.761 25.688 228.009 26.824 227.945 26.952C226.953 28.872 225.433 31.672 223.385 35.352C220.281 40.344 217.177 42.84 214.073 42.84C213.049 42.84 212.153 42.392 211.385 41.496C210.617 40.632 210.249 39.656 210.281 38.568Z" fill="black"/>
</svg>
