<svg width="1920" height="400" viewBox="0 0 1920 400" fill="none" xmlns="http://www.w3.org/2000/svg">
<g clip-path="url(#clip0)">
<circle opacity="0.85" cx="80.7099" cy="62.4907" r="28.8" transform="rotate(108 80.7099 62.4907)" fill="#2F5E78"/>
<circle opacity="0.86" cx="296.76" cy="82.9568" r="52.2" transform="rotate(8 296.76 82.9568)" fill="#FFCCDE"/>
<circle opacity="0.99" cx="559.438" cy="-31.3578" r="42.75" transform="rotate(-165 559.438 -31.3578)" fill="#57B5EA"/>
<circle opacity="0.91" cx="763.368" cy="-15.8706" r="40.05" transform="rotate(173 763.368 -15.8706)" fill="#D6F496"/>
<circle opacity="0.73" cx="925.038" cy="-24.2918" r="49.5" transform="rotate(-151 925.038 -24.2918)" fill="#EA5783"/>
<circle cx="1145.87" cy="20.1126" r="37.8" transform="rotate(-68 1145.87 20.1126)" fill="#57B5EA"/>
<circle opacity="0.9" cx="1352.49" cy="54.6952" r="41.4" transform="rotate(17 1352.49 54.6952)" fill="#57B5EA"/>
<circle opacity="0.77" cx="1634.07" cy="-21.6766" r="36.9" transform="rotate(-143 1634.07 -21.6766)" fill="#57B5EA"/>
<circle opacity="0.97" cx="1795.07" cy="6.36322" r="33.3" transform="rotate(174 1795.07 6.36322)" fill="#57B5EA"/>
<circle opacity="0.82" cx="80.9797" cy="99.6986" r="45" transform="rotate(143 80.9797 99.6986)" fill="#EA5757"/>
<circle opacity="0.94" cx="343.316" cy="94.2032" r="30.15" transform="rotate(73 343.316 94.2032)" fill="#57B5EA"/>
<circle opacity="0.71" cx="611.009" cy="126.345" r="35.1" transform="rotate(-24 611.009 126.345)" fill="#E698F2"/>
<circle opacity="0.8" cx="665.376" cy="30.9665" r="27.45" transform="rotate(-162 665.376 30.9665)" fill="#57B5EA"/>
<circle opacity="0.93" cx="1005.06" cy="61.5179" r="42.75" transform="rotate(167 1005.06 61.5179)" fill="#9DD0ED"/>
<circle opacity="0.78" cx="1128.43" cy="40.2348" r="44.55" transform="rotate(-91 1128.43 40.2348)" fill="#3EFCF0"/>
<circle opacity="0.73" cx="1393.68" cy="2.45574" r="38.25" transform="rotate(-146 1393.68 2.45574)" fill="#197A2E"/>
<circle opacity="0.88" cx="1459.44" cy="62.5062" r="44.1" transform="rotate(167 1459.44 62.5062)" fill="#E1F4FF"/>
<circle opacity="0.84" cx="1910.74" cy="162.496" r="49.95" transform="rotate(18 1910.74 162.496)" fill="#D0EDFD"/>
<circle opacity="0.99" cx="183.092" cy="201.304" r="36.9" transform="rotate(15 183.092 201.304)" fill="#346D55"/>
<circle opacity="0.97" cx="236.954" cy="85.0621" r="53.1" transform="rotate(-133 236.954 85.0621)" fill="#245B7A"/>
<circle opacity="0.86" cx="509.507" cy="94.9729" r="36" transform="rotate(-125 509.507 94.9729)" fill="#9FDDFF"/>
<circle opacity="0.87" cx="644.823" cy="196.559" r="47.7" transform="rotate(46 644.823 196.559)" fill="#F5C7C7"/>
<circle opacity="0.73" cx="886.507" cy="181.913" r="32.4" transform="rotate(108 886.507 181.913)" fill="#4EF39A"/>
<circle opacity="0.93" cx="1123.44" cy="161.997" r="27.9" transform="rotate(-4 1123.44 161.997)" fill="#51768B"/>
<circle opacity="0.75" cx="1307.79" cy="94.741" r="49.05" transform="rotate(-159 1307.79 94.741)" fill="#FAA1B1"/>
<circle opacity="0.86" cx="1626.44" cy="169.461" r="34.65" transform="rotate(-34 1626.44 169.461)" fill="#57B5EA"/>
<circle opacity="0.71" cx="1655.1" cy="119.61" r="44.55" transform="rotate(165 1655.1 119.61)" fill="#A8DDFB"/>
<circle cx="101.975" cy="149.3" r="44.1" transform="rotate(-69 101.975 149.3)" fill="#57B5EA"/>
<circle opacity="0.82" cx="476.521" cy="146.27" r="51.3" transform="rotate(-89 476.521 146.27)" fill="#A9CAFB"/>
<circle opacity="0.9" cx="494.552" cy="164.806" r="31.05" transform="rotate(159 494.552 164.806)" fill="#37EADF"/>
<circle opacity="0.99" cx="599.641" cy="184.945" r="29.25" transform="rotate(136 599.641 184.945)" fill="#A7DBF8"/>
<circle opacity="0.92" cx="1052.31" cy="204.381" r="36" transform="rotate(-34 1052.31 204.381)" fill="#37B7FF"/>
<circle opacity="0.73" cx="1267.1" cy="119.819" r="42.3" transform="rotate(-114 1267.1 119.819)" fill="#19B397"/>
<circle opacity="0.78" cx="1307.39" cy="140.817" r="50.4" transform="rotate(158 1307.39 140.817)" fill="#57B5EA"/>
<circle opacity="0.9" cx="1469.9" cy="156.28" r="44.55" transform="rotate(167 1469.9 156.28)" fill="#6B57EA"/>
<circle opacity="0.9" cx="1704.57" cy="193.591" r="28.8" transform="rotate(173 1704.57 193.591)" fill="#57B5EA"/>
<circle opacity="0.72" cx="79.5608" cy="189.106" r="35.1" transform="rotate(-97 79.5608 189.106)" fill="#2B6382"/>
<circle opacity="0.89" cx="480.239" cy="235.024" r="52.2" transform="rotate(-70 480.239 235.024)" fill="#D2EDFD"/>
<circle opacity="0.7" cx="356.496" cy="204.496" r="33.3" transform="rotate(168 356.496 204.496)" fill="#1D36BB"/>
<circle opacity="0.93" cx="731.58" cy="270.461" r="28.35" transform="rotate(79 731.58 270.461)" fill="#376C89"/>
<circle opacity="0.95" cx="1099.64" cy="259.14" r="39.6" transform="rotate(-9 1099.64 259.14)" fill="#F884BB"/>
<circle opacity="0.7" cx="1188.96" cy="212.56" r="49.05" transform="rotate(-173 1188.96 212.56)" fill="#FBE9BD"/>
<circle opacity="0.91" cx="1259.89" cy="215.829" r="43.65" transform="rotate(-159 1259.89 215.829)" fill="#2F627E"/>
<circle opacity="0.99" cx="1655.07" cy="182.052" r="37.35" transform="rotate(-144 1655.07 182.052)" fill="#57B5EA"/>
<circle opacity="0.98" cx="1794.08" cy="276.944" r="50.85" transform="rotate(124 1794.08 276.944)" fill="#57B5EA"/>
<circle opacity="0.94" cx="150.424" cy="370.411" r="51.3" transform="rotate(95 150.424 370.411)" fill="#A4F388"/>
<circle opacity="0.73" cx="351.546" cy="342.841" r="39.15" transform="rotate(51 351.546 342.841)" fill="#D8F1FF"/>
<circle opacity="0.92" cx="466.011" cy="304.426" r="27" transform="rotate(169 466.011 304.426)" fill="#0AA1F5"/>
<circle opacity="0.92" cx="753.486" cy="341.046" r="53.55" transform="rotate(81 753.486 341.046)" fill="#7E92FB"/>
<circle opacity="0.77" cx="831.707" cy="388.878" r="44.55" transform="rotate(70 831.707 388.878)" fill="#57B5EA"/>
<circle opacity="0.94" cx="1209.98" cy="328.995" r="42.75" transform="rotate(-41 1209.98 328.995)" fill="#22709C"/>
<circle opacity="0.89" cx="1385.88" cy="281.992" r="31.05" transform="rotate(-122 1385.88 281.992)" fill="#57B5EA"/>
<circle opacity="0.79" cx="1570.91" cy="317.813" r="28.35" transform="rotate(19 1570.91 317.813)" fill="#ED8EEF"/>
<circle opacity="0.91" cx="1957.07" cy="265.235" r="45" transform="rotate(-92 1957.07 265.235)" fill="#57B5EA"/>
<circle opacity="0.88" cx="6.80605" cy="440.61" r="52.65" transform="rotate(49 6.80605 440.61)" fill="#FDE1D8"/>
<circle opacity="0.73" cx="352.369" cy="296.744" r="31.5" transform="rotate(-156 352.369 296.744)" fill="#F49033"/>
<circle opacity="0.97" cx="509.917" cy="317.583" r="33.75" transform="rotate(-180 509.917 317.583)" fill="#A3ECC9"/>
<circle opacity="0.97" cx="698.273" cy="394.71" r="28.35" transform="rotate(120 698.273 394.71)" fill="#57B5EA"/>
<circle opacity="0.86" cx="886.197" cy="420.665" r="39.15" transform="rotate(72 886.197 420.665)" fill="#0895E4"/>
<circle opacity="0.79" cx="1054.34" cy="317.548" r="39.15" transform="rotate(-176 1054.34 317.548)" fill="#FF5E03"/>
<circle opacity="0.99" cx="1713.91" cy="300.958" r="29.7" transform="rotate(-119 1713.91 300.958)" fill="#96E9B7"/>
<circle opacity="0.77" cx="1797.15" cy="365.222" r="31.05" transform="rotate(-53 1797.15 365.222)" fill="#57B5EA"/>
<circle opacity="0.72" cx="325.144" cy="415.741" r="46.35" transform="rotate(129 325.144 415.741)" fill="#EA57A6"/>
<circle opacity="0.97" cx="577.036" cy="428.461" r="47.7" transform="rotate(109 577.036 428.461)" fill="#EAB9EE"/>
<circle opacity="0.78" cx="847.472" cy="416.125" r="31.5" transform="rotate(115 847.472 416.125)" fill="#57B5EA"/>
<circle opacity="0.96" cx="1256.93" cy="369.376" r="31.95" transform="rotate(-72 1256.93 369.376)" fill="#57B5EA"/>
<circle opacity="0.89" cx="1399.83" cy="352.052" r="47.25" transform="rotate(-149 1399.83 352.052)" fill="#C1F1B0"/>
<circle opacity="0.89" cx="1609.81" cy="436.119" r="38.7" transform="rotate(140 1609.81 436.119)" fill="#57B5EA"/>
<circle opacity="0.8" cx="1713.25" cy="426.678" r="34.65" transform="rotate(93 1713.25 426.678)" fill="#FBD03B"/>
<circle opacity="0.74" cx="534.607" cy="398.096" r="54" transform="rotate(-174 534.607 398.096)" fill="#57B5EA"/>
<circle opacity="0.9" cx="807.712" cy="440.201" r="46.8" transform="rotate(151 807.712 440.201)" fill="#D67BF7"/>
<circle opacity="0.84" cx="1279.39" cy="397.638" r="54" transform="rotate(-157 1279.39 397.638)" fill="#57EAE1"/>
<circle opacity="0.74" cx="1655.81" cy="372.871" r="52.65" transform="rotate(-151 1655.81 372.871)" fill="#57B5EA"/>
</g>
<defs>
<clipPath id="clip0">
<rect width="1920" height="400" fill="white"/>
</clipPath>
</defs>
</svg>
